<svg width="14" height="14" viewBox="0 0 14 14" fill="none" xmlns="http://www.w3.org/2000/svg">
<path fill-rule="evenodd" clip-rule="evenodd" d="M7.00033 0.333008C8.78092 0.333008 10.4554 1.02637 11.7145 2.28581C14.3135 4.88509 14.3135 9.11426 11.7145 11.7135C10.4554 12.973 8.78092 13.6663 7.00033 13.6663C5.21973 13.6663 3.54525 12.973 2.28613 11.7135C-0.312826 9.11426 -0.312826 4.88509 2.28613 2.28581C3.54525 1.02637 5.21973 0.333008 7.00033 0.333008ZM7.00033 0.999674C5.39746 0.999674 3.89095 1.6237 2.75749 2.75716C0.418294 5.09635 0.418294 8.903 2.75749 11.2422C3.89095 12.3757 5.39746 12.9997 7.00033 12.9997C8.60319 12.9997 10.1097 12.3757 11.2432 11.2422C13.5824 8.903 13.5824 5.09635 11.2432 2.75716C10.1097 1.6237 8.60319 0.999674 7.00033 0.999674ZM4.59738 4.13264C4.46747 4.04262 4.28794 4.05548 4.1722 4.17122C4.04199 4.30143 4.04199 4.51237 4.1722 4.64258L6.52901 6.99967L4.1722 9.35677L4.13362 9.40294C4.0436 9.53286 4.05646 9.71238 4.1722 9.82812C4.2373 9.89323 4.32259 9.92578 4.40788 9.92578C4.49316 9.92578 4.57845 9.89323 4.64355 9.82812L7.00033 7.47107L9.3571 9.82812L9.40939 9.87085C9.46484 9.90747 9.52881 9.92578 9.59277 9.92578C9.67806 9.92578 9.76335 9.89323 9.82845 9.82812C9.95866 9.69792 9.95866 9.48698 9.82845 9.35677L7.47164 6.99967L9.82845 4.64258L9.86703 4.59641C9.95705 4.46649 9.94419 4.28696 9.82845 4.17122C9.69824 4.04102 9.4873 4.04102 9.3571 4.17122L7.00033 6.52828L4.64355 4.17122L4.59738 4.13264Z" fill="#FB6400"/>
</svg>
